<?xml version="1.0" encoding="UTF-8"?>
<!DOCTYPE svg PUBLIC "-//W3C//DTD SVG 1.1//EN" "http://www.w3.org/Graphics/SVG/1.1/DTD/svg11.dtd">
<!-- Creator: CorelDRAW X7 -->
<svg xmlns="http://www.w3.org/2000/svg" xml:space="preserve" width="1.66666in" height="1.66666in" version="1.1" style="shape-rendering:geometricPrecision; text-rendering:geometricPrecision; image-rendering:optimizeQuality; fill-rule:evenodd; clip-rule:evenodd"
viewBox="0 0 1667 1667"
 xmlns:xlink="http://www.w3.org/1999/xlink">
 <defs>
  <style type="text/css">
   <![CDATA[
    .fil0 {fill:#23BECD}
   ]]>
  </style>
 </defs>
 <g id="Layer_x0020_1">
  <metadata id="CorelCorpID_0Corel-Layer"/>
  <path class="fil0" d="M833 979c107,0 194,-87 194,-194 0,-107 -87,-194 -194,-194 -107,0 -193,87 -193,194 0,107 86,194 193,194zm323 145c-19,-61 -52,-115 -99,-156 -53,65 -133,108 -224,108 -90,0 -170,-43 -223,-108 -47,41 -81,95 -99,156 79,88 194,145 322,145 129,0 243,-57 323,-145zm-323 -823c294,0 533,239 533,532 0,294 -239,533 -533,533 -293,0 -532,-239 -532,-533 0,-293 239,-532 532,-532zm-786 677l129 21c16,64 41,125 75,182l-74 104c-13,19 -11,45 6,62l137 137c16,17 43,19 62,5l104 -74c57,34 118,60 182,76l21 129c4,23 24,40 47,40l194 0c24,0 44,-17 48,-40l21 -129c64,-16 125,-42 182,-76l104 74c19,14 45,12 62,-5l137 -137c17,-17 19,-43 5,-62l-74 -104c34,-57 60,-118 76,-182l129 -21c23,-4 40,-24 40,-48l0 -194c0,-23 -17,-43 -40,-47l-129 -21c-16,-64 -42,-125 -76,-182l74 -104c14,-19 12,-46 -5,-62l-137 -137c-17,-17 -43,-19 -62,-6l-104 74c-57,-34 -118,-59 -182,-75l-21 -129c-4,-23 -24,-40 -48,-40l-194 0c-23,0 -43,17 -47,40l-21 129c-64,16 -125,41 -182,75l-104 -74c-19,-13 -46,-11 -62,6l-137 137c-17,16 -19,43 -6,62l74 104c-34,57 -59,118 -75,182l-129 21c-23,4 -40,24 -40,47l0 194c0,24 17,44 40,48z"/>
 </g>
</svg>
