<?xml version="1.0" encoding="UTF-8"?>
<!DOCTYPE svg PUBLIC "-//W3C//DTD SVG 1.1//EN" "http://www.w3.org/Graphics/SVG/1.1/DTD/svg11.dtd">
<!-- Creator: CorelDRAW X7 -->
<svg xmlns="http://www.w3.org/2000/svg" xml:space="preserve" width="1.66666in" height="1.66666in" version="1.1" style="shape-rendering:geometricPrecision; text-rendering:geometricPrecision; image-rendering:optimizeQuality; fill-rule:evenodd; clip-rule:evenodd"
viewBox="0 0 1667 1667"
 xmlns:xlink="http://www.w3.org/1999/xlink">
 <defs>
  <style type="text/css">
   <![CDATA[
    .fil0 {fill:#373435}
   ]]>
  </style>
 </defs>
 <g id="Layer_x0020_1">
  <metadata id="CorelCorpID_0Corel-Layer"/>
  <path class="fil0" d="M786 1259l476 0 0 95 -476 0 0 -95zm-382 95l286 0 0 -286 -286 0 0 286zm-190 -1334l0 1627 1239 0 0 -1317 -413 -310 -826 0zm95 1531l0 -1436 681 0 95 286 273 0 0 1150 -1049 0zm808 -1354l145 109 -108 0 -37 -109zm-427 109l-286 0 0 286 286 0 0 -286zm-95 191l-95 0 0 -96 95 0 0 96zm-95 361l-62 -62 -67 68 129 129 224 -224 -67 -68 -157 157zm0 306l95 0 0 95 -95 0 0 -95zm286 -667l476 0 0 95 -476 0 0 -95zm190 190l286 0 0 95 -286 0 0 -95zm-190 191l476 0 0 95 -476 0 0 -95zm190 190l286 0 0 96 -286 0 0 -96z"/>
 </g>
</svg>
