<?xml version="1.0" encoding="UTF-8"?>
<!DOCTYPE svg PUBLIC "-//W3C//DTD SVG 1.1//EN" "http://www.w3.org/Graphics/SVG/1.1/DTD/svg11.dtd">
<!-- Creator: CorelDRAW X7 -->
<svg xmlns="http://www.w3.org/2000/svg" xml:space="preserve" width="1.66666in" height="1.66666in" version="1.1" style="shape-rendering:geometricPrecision; text-rendering:geometricPrecision; image-rendering:optimizeQuality; fill-rule:evenodd; clip-rule:evenodd"
viewBox="0 0 1667 1667"
 xmlns:xlink="http://www.w3.org/1999/xlink">
 <defs>
  <style type="text/css">
   <![CDATA[
    .fil0 {fill:#23BECD}
   ]]>
  </style>
 </defs>
 <g id="Layer_x0020_1">
  <metadata id="CorelCorpID_0Corel-Layer"/>
  <path class="fil0" d="M1538 3l-1006 0c-181,0 -327,147 -327,327l0 76 -76 0c-42,0 -75,34 -75,75 0,42 33,76 75,76l76 0 0 201 -76 0c-42,0 -75,34 -75,75 0,42 33,76 75,76l76 0 0 201 -76 0c-42,0 -75,34 -75,75 0,42 33,76 75,76l76 0 0 75c0,181 146,327 327,327l1006 0c41,0 75,-33 75,-75l0 -1509c0,-42 -34,-76 -75,-76zm-629 712c-65,0 -118,53 -118,118 0,66 53,119 118,119 65,0 118,-53 118,-119 0,-65 -53,-118 -118,-118zm372 200c0,70 -57,127 -127,127 -43,0 -81,-22 -104,-55 -38,34 -87,55 -141,55 -115,0 -209,-94 -209,-209 0,-115 94,-208 209,-208 115,0 209,93 209,208l0 82c0,20 16,37 36,37 20,0 36,-17 36,-37l0 -82c0,-155 -126,-281 -281,-281 -156,0 -282,126 -282,281 0,156 126,282 282,282 25,0 45,20 45,45 0,25 -20,46 -45,46 -205,0 -372,-167 -372,-373 0,-205 167,-372 372,-372 205,0 372,167 372,372l0 82z"/>
 </g>
</svg>
