<?xml version="1.0" encoding="UTF-8"?>
<!DOCTYPE svg PUBLIC "-//W3C//DTD SVG 1.1//EN" "http://www.w3.org/Graphics/SVG/1.1/DTD/svg11.dtd">
<!-- Creator: CorelDRAW X7 -->
<svg xmlns="http://www.w3.org/2000/svg" xml:space="preserve" width="1.66666in" height="1.66666in" version="1.1" style="shape-rendering:geometricPrecision; text-rendering:geometricPrecision; image-rendering:optimizeQuality; fill-rule:evenodd; clip-rule:evenodd"
viewBox="0 0 1667 1667"
 xmlns:xlink="http://www.w3.org/1999/xlink">
 <defs>
  <style type="text/css">
   <![CDATA[
    .fil0 {fill:#373435}
   ]]>
  </style>
 </defs>
 <g id="Layer_x0020_1">
  <metadata id="CorelCorpID_0Corel-Layer"/>
  <path class="fil0" d="M1486 565c-143,-333 -373,-587 -490,-539 -198,80 118,466 -854,861 -84,34 -105,171 -70,252 35,82 150,163 234,129 15,-6 68,-23 68,-23 60,81 123,33 145,84 27,61 85,195 105,240 19,46 64,88 97,75 32,-12 143,-54 185,-70 42,-16 52,-54 39,-84 -14,-32 -71,-41 -87,-78 -16,-38 -69,-158 -85,-195 -21,-52 24,-93 88,-100 442,-46 525,227 675,166 117,-48 93,-385 -50,-718zm-50 540c-26,10 -200,-127 -311,-386 -111,-258 -97,-495 -71,-505 26,-11 195,155 306,413 112,259 102,467 76,478z"/>
 </g>
</svg>
