<?xml version="1.0" encoding="UTF-8"?>
<!DOCTYPE svg PUBLIC "-//W3C//DTD SVG 1.1//EN" "http://www.w3.org/Graphics/SVG/1.1/DTD/svg11.dtd">
<!-- Creator: CorelDRAW X7 -->
<svg xmlns="http://www.w3.org/2000/svg" xml:space="preserve" width="1.66666in" height="1.66666in" version="1.1" style="shape-rendering:geometricPrecision; text-rendering:geometricPrecision; image-rendering:optimizeQuality; fill-rule:evenodd; clip-rule:evenodd"
viewBox="0 0 1667 1667"
 xmlns:xlink="http://www.w3.org/1999/xlink">
 <defs>
  <style type="text/css">
   <![CDATA[
    .fil0 {fill:#00AFEF}
   ]]>
  </style>
 </defs>
 <g id="Layer_x0020_1">
  <metadata id="CorelCorpID_0Corel-Layer"/>
  <path class="fil0" d="M785 1052l-45 -457 0 -212 186 0 0 212 -44 457 -97 0zm48 -1032c-449,0 -813,364 -813,813 0,450 364,814 813,814 450,0 814,-364 814,-814 0,-449 -364,-813 -814,-813zm0 127c-379,0 -686,307 -686,686 0,379 307,687 686,687 379,0 687,-308 687,-687 0,-379 -308,-686 -687,-686zm-85 1136l0 -172 172 0 0 172 -172 0z"/>
 </g>
</svg>
