<?xml version="1.0" encoding="UTF-8"?>
<!DOCTYPE svg PUBLIC "-//W3C//DTD SVG 1.1//EN" "http://www.w3.org/Graphics/SVG/1.1/DTD/svg11.dtd">
<!-- Creator: CorelDRAW X7 -->
<svg xmlns="http://www.w3.org/2000/svg" xml:space="preserve" width="1.66666in" height="1.66666in" version="1.1" style="shape-rendering:geometricPrecision; text-rendering:geometricPrecision; image-rendering:optimizeQuality; fill-rule:evenodd; clip-rule:evenodd"
viewBox="0 0 1667 1667"
 xmlns:xlink="http://www.w3.org/1999/xlink">
 <defs>
  <style type="text/css">
   <![CDATA[
    .fil0 {fill:#00AFEF}
   ]]>
  </style>
 </defs>
 <g id="Layer_x0020_1">
  <metadata id="CorelCorpID_0Corel-Layer"/>
  <path class="fil0" d="M169 1364l0 -796 1195 0 0 346c-31,-9 -65,-14 -99,-14 -201,0 -365,164 -365,365 0,34 5,68 14,99l-745 0zm602 -258l0 -269c-50,38 -84,58 -101,58 -8,0 -16,-4 -22,-10 -7,-7 -10,-14 -10,-23 0,-10 3,-18 10,-22 6,-5 17,-11 33,-18 24,-12 43,-23 57,-36 14,-12 27,-26 38,-41 11,-16 18,-25 22,-29 3,-3 9,-5 19,-5 10,0 18,4 25,12 6,8 9,19 9,33l0 338c0,40 -13,59 -40,59 -12,0 -22,-4 -29,-12 -8,-8 -11,-20 -11,-35zm-364 -221c18,0 33,-5 47,-16 13,-11 19,-26 19,-46 0,-15 -5,-28 -16,-39 -10,-11 -24,-16 -42,-16 -12,0 -22,1 -29,5 -8,3 -14,8 -19,13 -4,5 -9,13 -13,21 -4,9 -7,17 -11,25 -2,4 -5,7 -10,10 -5,2 -11,3 -18,3 -8,0 -15,-3 -22,-9 -6,-7 -10,-15 -10,-26 0,-10 3,-21 10,-32 6,-12 15,-22 27,-33 12,-10 27,-18 44,-24 18,-6 38,-9 60,-9 19,0 36,2 52,7 15,6 29,13 41,23 11,10 20,21 26,34 6,13 9,27 9,42 0,20 -4,37 -13,51 -8,14 -21,27 -37,41 16,8 29,17 39,28 11,11 19,22 24,35 5,13 8,27 8,42 0,18 -4,35 -11,52 -7,17 -18,31 -32,45 -14,13 -30,23 -49,30 -20,8 -41,11 -64,11 -24,0 -45,-4 -63,-12 -19,-9 -34,-19 -47,-32 -12,-13 -21,-26 -27,-39 -6,-14 -9,-25 -9,-34 0,-11 3,-21 11,-28 7,-7 16,-10 27,-10 6,0 11,1 16,5 5,3 9,7 10,11 11,28 22,48 33,61 12,14 28,20 50,20 12,0 24,-3 35,-9 11,-6 21,-15 28,-26 7,-12 11,-26 11,-41 0,-23 -6,-41 -19,-55 -12,-13 -30,-19 -52,-19 -4,0 -10,0 -19,1 -8,1 -13,1 -16,1 -10,0 -19,-3 -25,-8 -6,-5 -9,-13 -9,-23 0,-9 4,-17 11,-22 7,-6 18,-9 32,-9l12 0zm704 397c-2,-2 -4,-6 -4,-8l0 0 0 -1c0,-2 2,-5 4,-8l17 -17c5,-4 12,-4 17,0l1 2 66 70c2,3 6,3 8,0l161 -166 1 0c5,-5 12,-5 17,0l17 16c5,5 5,12 0,17l-192 199c-3,3 -5,4 -9,4l0 0 0 0c-3,0 -6,-1 -8,-4l-94 -100 -2 -4zm386 -299l0 -681c0,-73 -59,-133 -133,-133l-166 0c-18,0 -33,15 -33,34l0 166c0,36 -30,66 -66,66 -37,0 -67,-30 -67,-66 0,-28 18,-53 45,-63 13,-4 22,-17 22,-31l0 -205c0,-18 -15,-33 -33,-33 -19,0 -34,15 -34,33l0 99 -497 0c-19,0 -34,15 -34,34l0 166c0,36 -29,66 -66,66 -37,0 -66,-30 -66,-66 0,-28 17,-53 44,-63 13,-4 22,-17 22,-31l0 -205c0,-18 -15,-33 -33,-33 -19,0 -33,15 -33,33l0 99 -200 0c-73,0 -132,60 -132,133l0 1062c0,74 59,133 132,133l814 0c67,81 169,133 282,133 201,0 365,-164 365,-365 0,-113 -52,-215 -133,-282zm-234 37c128,0 232,106 232,236 0,130 -104,236 -232,236 -128,0 -232,-106 -232,-236 0,-130 104,-236 232,-236z"/>
 </g>
</svg>
