<?xml version="1.0" encoding="UTF-8"?>
<!DOCTYPE svg PUBLIC "-//W3C//DTD SVG 1.1//EN" "http://www.w3.org/Graphics/SVG/1.1/DTD/svg11.dtd">
<!-- Creator: CorelDRAW X7 -->
<svg xmlns="http://www.w3.org/2000/svg" xml:space="preserve" width="1.66666in" height="1.66666in" version="1.1" style="shape-rendering:geometricPrecision; text-rendering:geometricPrecision; image-rendering:optimizeQuality; fill-rule:evenodd; clip-rule:evenodd"
viewBox="0 0 1667 1667"
 xmlns:xlink="http://www.w3.org/1999/xlink">
 <defs>
  <style type="text/css">
   <![CDATA[
    .fil0 {fill:#23BECD}
   ]]>
  </style>
 </defs>
 <g id="Layer_x0020_1">
  <metadata id="CorelCorpID_0Corel-Layer"/>
  <path class="fil0" d="M1480 308l-19 -24 -296 296 13 19c47,69 72,150 72,234 0,84 -25,165 -72,234l-13 20 296 295 19 -23c120,-148 187,-335 187,-526 0,-190 -66,-377 -187,-525zm-647 -197c134,0 266,38 379,108l-143 142c-73,-36 -153,-55 -236,-55 -230,0 -431,148 -501,361l-203 0c76,-323 363,-556 704,-556zm0 -111c-429,0 -786,321 -830,747l-3 31 419 0 4 -23c38,-196 210,-338 410,-338 84,0 165,25 234,72l19 13 296 -296 -24 -20c-148,-120 -334,-186 -525,-186zm234 1178c-69,47 -150,72 -234,72 -200,0 -372,-142 -410,-339l-4 -22 -419 0 3 30c44,426 401,748 830,748 191,0 377,-67 525,-187l24 -19 -296 -296 -19 13z"/>
 </g>
</svg>
