<?xml version="1.0" encoding="UTF-8"?>
<!DOCTYPE svg PUBLIC "-//W3C//DTD SVG 1.1//EN" "http://www.w3.org/Graphics/SVG/1.1/DTD/svg11.dtd">
<!-- Creator: CorelDRAW X7 -->
<svg xmlns="http://www.w3.org/2000/svg" xml:space="preserve" width="1.66666in" height="1.66666in" version="1.1" style="shape-rendering:geometricPrecision; text-rendering:geometricPrecision; image-rendering:optimizeQuality; fill-rule:evenodd; clip-rule:evenodd"
viewBox="0 0 1667 1667"
 xmlns:xlink="http://www.w3.org/1999/xlink">
 <defs>
  <style type="text/css">
   <![CDATA[
    .str0 {stroke:white;stroke-width:6.94488}
    .fil0 {fill:#FEFEFE}
    .fil1 {fill:#373435}
   ]]>
  </style>
 </defs>
 <g id="Layer_x0020_1">
  <metadata id="CorelCorpID_0Corel-Layer"/>
  <path class="fil0 str0" d="M93 886c17,-27 503,-499 553,-550 218,-226 189,-207 295,-101l272 279c46,48 351,350 360,374 -149,1 -197,-23 -197,64l0 554 -324 0c0,-21 -2,-43 -2,-59 0,-49 0,-97 0,-146 -3,-368 31,-357 -91,-356l-290 0c-63,1 -54,31 -53,89 0,100 -1,199 -1,299 0,51 1,101 0,152 0,7 0,14 0,21l-325 0 0 -351c1,-333 25,-261 -197,-269zm1346 677l2 -2c14,-19 7,-527 9,-596l107 0c74,1 130,-49 82,-119 -22,-32 -84,-89 -112,-117 -179,-172 -381,-399 -561,-572 -41,-39 -69,-82 -149,-66 -48,9 -98,70 -128,99 -178,171 -390,396 -567,560 -28,27 -98,92 -107,122 -35,118 136,90 201,94l1 551c0,6 0,12 1,17 -1,3 -1,6 -1,9l0 0c0,20 11,36 25,36l420 0c14,0 25,-16 25,-36l0 0c0,-2 0,-4 0,-6 5,-25 1,-53 1,-90 0,-120 -5,-322 1,-425l288 1c5,88 2,343 1,456 -1,22 -4,53 3,73 2,16 12,27 24,27l413 0c9,0 17,-6 21,-16z"/>
  <path class="fil1" d="M981 860c-39,-61 -106,-98 -180,-98 -73,0 -140,37 -179,98l-95 148c-16,25 -24,54 -22,83 2,29 14,56 33,78 19,23 44,38 72,44 29,7 58,4 85,-8l2 -1c67,-29 144,-28 211,1 18,8 36,12 54,12 11,0 21,-1 31,-4 28,-6 53,-21 72,-44 19,-22 30,-49 33,-78 2,-29 -6,-58 -22,-83l-95 -148zm-148 -840c-449,0 -813,364 -813,813 0,450 364,814 813,814 450,0 814,-364 814,-814 0,-449 -364,-813 -814,-813zm0 127c-379,0 -686,307 -686,686 0,379 307,687 686,687 379,0 687,-308 687,-687 0,-379 -308,-686 -687,-686zm398 616l0 0c-49,-37 -123,-21 -164,35 -41,55 -34,130 15,166 17,13 38,19 60,19 38,0 77,-19 103,-54 41,-56 35,-130 -14,-166zm-272 17l0 0c11,3 22,5 33,5 52,0 103,-38 122,-96 11,-33 10,-68 -2,-99 -13,-32 -37,-55 -68,-66 -31,-10 -64,-6 -94,12 -28,18 -50,45 -61,79 -23,70 8,144 70,165zm-222 -36c71,0 129,-66 129,-147 0,-81 -58,-147 -129,-147 -71,0 -129,66 -129,147 0,81 58,147 129,147zm-185 116c28,-11 50,-34 61,-64 10,-29 9,-62 -3,-93 -11,-30 -33,-55 -60,-70 -28,-15 -60,-18 -88,-7 -57,22 -83,92 -58,157 20,51 66,83 113,83 12,0 24,-2 35,-6z"/>
 </g>
</svg>
