<?xml version="1.0" encoding="UTF-8"?>
<!DOCTYPE svg PUBLIC "-//W3C//DTD SVG 1.1//EN" "http://www.w3.org/Graphics/SVG/1.1/DTD/svg11.dtd">
<!-- Creator: CorelDRAW X7 -->
<svg xmlns="http://www.w3.org/2000/svg" xml:space="preserve" width="1.66666in" height="1.66666in" version="1.1" style="shape-rendering:geometricPrecision; text-rendering:geometricPrecision; image-rendering:optimizeQuality; fill-rule:evenodd; clip-rule:evenodd"
viewBox="0 0 1667 1667"
 xmlns:xlink="http://www.w3.org/1999/xlink">
 <defs>
  <style type="text/css">
   <![CDATA[
    .fil0 {fill:#373435}
   ]]>
  </style>
 </defs>
 <g id="Layer_x0020_1">
  <metadata id="CorelCorpID_0Corel-Layer"/>
  <path class="fil0" d="M1219 834c-11,0 -21,1 -30,4 -9,-60 -61,-106 -123,-106 -15,0 -30,3 -43,8l-16 -184 192 -222 -286 -67 -152 -250 -152 250 -285 67 191 222 -24 292 146 -61 0 180 -4 -5c-21,-19 -47,-31 -76,-31 -35,0 -69,17 -90,46 -21,28 -27,66 -16,99l44 130c23,70 60,132 111,186l98 105 0 153 507 0 0 -149 132 -232 0 -311c0,-68 -56,-124 -124,-124zm-620 -134l14 -175 -115 -134 172 -40 91 -151 92 151 171 40 -115 134 13 157c-3,0 -5,0 -8,0 -10,0 -20,1 -29,3l0 -167c0,-69 -55,-124 -124,-124 -68,0 -124,55 -124,124l0 166 -38 16zm648 544l-131 232 0 79 -317 0 0 -96 -124 -132c-41,-44 -71,-94 -90,-151l-43 -130c-3,-6 0,-11 2,-13 1,-3 5,-7 12,-7l0 0c4,0 8,2 10,5l71 69 0 57 96 0 0 -639c0,-16 13,-29 28,-29 16,0 29,13 29,29l0 564 95 0 0 -277c0,-15 13,-28 29,-28 16,0 28,13 28,28l0 258 96 0 0 -207c0,-16 13,-28 28,-28 16,0 29,12 29,28l0 207 95 0 0 -105c0,-16 13,-29 29,-29 16,0 28,13 28,29l0 286z"/>
 </g>
</svg>
