<?xml version="1.0" encoding="UTF-8"?>
<!DOCTYPE svg PUBLIC "-//W3C//DTD SVG 1.1//EN" "http://www.w3.org/Graphics/SVG/1.1/DTD/svg11.dtd">
<!-- Creator: CorelDRAW X7 -->
<svg xmlns="http://www.w3.org/2000/svg" xml:space="preserve" width="1.66666in" height="1.66666in" version="1.1" style="shape-rendering:geometricPrecision; text-rendering:geometricPrecision; image-rendering:optimizeQuality; fill-rule:evenodd; clip-rule:evenodd"
viewBox="0 0 1667 1667"
 xmlns:xlink="http://www.w3.org/1999/xlink">
 <defs>
  <style type="text/css">
   <![CDATA[
    .fil0 {fill:#23BECD}
   ]]>
  </style>
 </defs>
 <g id="Layer_x0020_1">
  <metadata id="CorelCorpID_0Corel-Layer"/>
  <path class="fil0" d="M1520 1401c0,0 -180,-310 -212,-365 37,-12 76,-21 92,-50 27,-46 -21,-123 -8,-173 13,-52 90,-97 90,-149 0,-51 -80,-111 -93,-162 -13,-51 35,-127 8,-174 -27,-47 -118,-43 -155,-79 -38,-37 -38,-127 -85,-152 -46,-25 -122,25 -173,13 -51,-11 -97,-88 -150,-88 -54,0 -140,87 -154,90 -51,12 -127,-38 -173,-13 -47,25 -46,115 -85,152 -37,36 -127,33 -154,79 -28,47 21,124 8,174 -13,50 -92,101 -92,160 0,52 77,97 90,148 13,50 -35,127 -8,174 15,26 48,36 82,46 4,1 11,6 6,13 -23,40 -208,358 -208,358 -4,8 -6,15 -6,21l0 1c0,15 12,26 33,27l143 6c29,1 66,22 82,47l76 121c16,25 41,25 55,-1 0,0 214,-369 215,-369 4,-5 8,-4 10,-2 24,20 56,39 83,39 27,0 52,-18 76,-39 2,-2 7,-5 11,2 0,0 214,367 214,367 14,26 39,26 55,1l76 -121c16,-25 52,-46 82,-48l143 -6c29,-1 41,-23 26,-48zm-485 -1089c-1,-1 -2,-1 -2,-1 -121,-70 -274,-75 -403,0 -191,111 -256,356 -145,547 34,59 81,105 134,139 5,2 9,5 14,8 191,111 437,45 547,-146 111,-191 46,-436 -145,-547zm47 312l-66 65c-21,21 -34,61 -29,89l16 92c4,29 -13,41 -38,28l-83 -44c-25,-13 -67,-13 -93,0l-83 44c-25,13 -42,1 -37,-28l15 -92c5,-28 -8,-68 -28,-89l-67 -65c-21,-20 -15,-40 14,-44l93 -13c28,-5 62,-29 75,-55l41 -84c13,-26 34,-26 47,0l41 84c13,26 47,50 76,55l92 13c29,4 35,24 14,44zm-11 444c-159,93 -349,83 -494,-9 -213,-136 -283,-418 -155,-639 129,-224 414,-303 639,-180 2,1 3,2 4,2 2,1 3,2 5,3 69,40 130,98 173,173 132,226 55,518 -172,650z"/>
 </g>
</svg>
