<?xml version="1.0" encoding="UTF-8"?>
<!DOCTYPE svg PUBLIC "-//W3C//DTD SVG 1.1//EN" "http://www.w3.org/Graphics/SVG/1.1/DTD/svg11.dtd">
<!-- Creator: CorelDRAW X7 -->
<svg xmlns="http://www.w3.org/2000/svg" xml:space="preserve" width="1.66666in" height="1.66666in" version="1.1" style="shape-rendering:geometricPrecision; text-rendering:geometricPrecision; image-rendering:optimizeQuality; fill-rule:evenodd; clip-rule:evenodd"
viewBox="0 0 1667 1667"
 xmlns:xlink="http://www.w3.org/1999/xlink">
 <defs>
  <style type="text/css">
   <![CDATA[
    .fil1 {fill:black}
    .fil0 {fill:black}
   ]]>
  </style>
 </defs>
 <g id="Layer_x0020_1">
  <metadata id="CorelCorpID_0Corel-Layer"/>
  <path class="fil0" d="M203 1434c0,-7 0,-8 0,-7l0 0 0 0 0 0 0 1 0 0 0 1c0,1 0,3 0,5z"/>
  <path class="fil1" d="M1463 1417c-7,-389 -57,-500 -447,-571 0,0 -55,70 -183,70 -127,0 -182,-70 -182,-70 -386,70 -440,179 -447,559 0,31 -1,32 -1,29 0,7 0,19 0,41 0,0 93,187 630,187 538,0 630,-187 630,-187 0,-14 0,-24 0,-31 0,3 0,-2 0,-27zm-630 -602c185,0 334,-181 334,-405 0,-224 -49,-405 -334,-405 -284,0 -333,181 -333,405 0,224 149,405 333,405z"/>
 </g>
</svg>
